%TF.GenerationSoftware,KiCad,Pcbnew,6.0.5-a6ca702e91~116~ubuntu20.04.1*%
%TF.CreationDate,2022-05-18T10:56:59+02:00*%
%TF.ProjectId,StationMeteo,53746174-696f-46e4-9d65-74656f2e6b69,rev?*%
%TF.SameCoordinates,PX21e9a40PY196f3b0*%
%TF.FileFunction,Legend,Bot*%
%TF.FilePolarity,Positive*%
%FSLAX46Y46*%
G04 Gerber Fmt 4.6, Leading zero omitted, Abs format (unit mm)*
G04 Created by KiCad (PCBNEW 6.0.5-a6ca702e91~116~ubuntu20.04.1) date 2022-05-18 10:56:59*
%MOMM*%
%LPD*%
G01*
G04 APERTURE LIST*
%ADD10C,0.150000*%
%ADD11C,0.120000*%
%ADD12C,3.500000*%
%ADD13R,1.700000X1.700000*%
%ADD14O,1.700000X1.700000*%
%ADD15R,1.800000X1.800000*%
%ADD16C,1.800000*%
%ADD17C,1.600000*%
%ADD18O,1.600000X1.600000*%
%ADD19R,1.600000X1.600000*%
G04 APERTURE END LIST*
D10*
%TO.C,J5*%
X87292380Y-3476666D02*
X88006666Y-3476666D01*
X88149523Y-3429047D01*
X88244761Y-3333809D01*
X88292380Y-3190952D01*
X88292380Y-3095714D01*
X87292380Y-4429047D02*
X87292380Y-3952857D01*
X87768571Y-3905238D01*
X87720952Y-3952857D01*
X87673333Y-4048095D01*
X87673333Y-4286190D01*
X87720952Y-4381428D01*
X87768571Y-4429047D01*
X87863809Y-4476666D01*
X88101904Y-4476666D01*
X88197142Y-4429047D01*
X88244761Y-4381428D01*
X88292380Y-4286190D01*
X88292380Y-4048095D01*
X88244761Y-3952857D01*
X88197142Y-3905238D01*
%TO.C,D2*%
X37568095Y-9492380D02*
X37568095Y-8492380D01*
X37330000Y-8492380D01*
X37187142Y-8540000D01*
X37091904Y-8635238D01*
X37044285Y-8730476D01*
X36996666Y-8920952D01*
X36996666Y-9063809D01*
X37044285Y-9254285D01*
X37091904Y-9349523D01*
X37187142Y-9444761D01*
X37330000Y-9492380D01*
X37568095Y-9492380D01*
X36615714Y-8587619D02*
X36568095Y-8540000D01*
X36472857Y-8492380D01*
X36234761Y-8492380D01*
X36139523Y-8540000D01*
X36091904Y-8587619D01*
X36044285Y-8682857D01*
X36044285Y-8778095D01*
X36091904Y-8920952D01*
X36663333Y-9492380D01*
X36044285Y-9492380D01*
%TO.C,R1*%
X81475666Y-44056380D02*
X81809000Y-43580190D01*
X82047095Y-44056380D02*
X82047095Y-43056380D01*
X81666142Y-43056380D01*
X81570904Y-43104000D01*
X81523285Y-43151619D01*
X81475666Y-43246857D01*
X81475666Y-43389714D01*
X81523285Y-43484952D01*
X81570904Y-43532571D01*
X81666142Y-43580190D01*
X82047095Y-43580190D01*
X80523285Y-44056380D02*
X81094714Y-44056380D01*
X80809000Y-44056380D02*
X80809000Y-43056380D01*
X80904238Y-43199238D01*
X80999476Y-43294476D01*
X81094714Y-43342095D01*
%TO.C,A1*%
X49696666Y-28505714D02*
X49696666Y-28981904D01*
X49982380Y-28410476D02*
X48982380Y-28743809D01*
X49982380Y-29077142D01*
X49982380Y-29934285D02*
X49982380Y-29362857D01*
X49982380Y-29648571D02*
X48982380Y-29648571D01*
X49125238Y-29553333D01*
X49220476Y-29458095D01*
X49268095Y-29362857D01*
%TO.C,D3*%
X29948095Y-9492380D02*
X29948095Y-8492380D01*
X29710000Y-8492380D01*
X29567142Y-8540000D01*
X29471904Y-8635238D01*
X29424285Y-8730476D01*
X29376666Y-8920952D01*
X29376666Y-9063809D01*
X29424285Y-9254285D01*
X29471904Y-9349523D01*
X29567142Y-9444761D01*
X29710000Y-9492380D01*
X29948095Y-9492380D01*
X29043333Y-8492380D02*
X28424285Y-8492380D01*
X28757619Y-8873333D01*
X28614761Y-8873333D01*
X28519523Y-8920952D01*
X28471904Y-8968571D01*
X28424285Y-9063809D01*
X28424285Y-9301904D01*
X28471904Y-9397142D01*
X28519523Y-9444761D01*
X28614761Y-9492380D01*
X28900476Y-9492380D01*
X28995714Y-9444761D01*
X29043333Y-9397142D01*
%TO.C,J3*%
X9223333Y-11922380D02*
X9223333Y-12636666D01*
X9270952Y-12779523D01*
X9366190Y-12874761D01*
X9509047Y-12922380D01*
X9604285Y-12922380D01*
X8842380Y-11922380D02*
X8223333Y-11922380D01*
X8556666Y-12303333D01*
X8413809Y-12303333D01*
X8318571Y-12350952D01*
X8270952Y-12398571D01*
X8223333Y-12493809D01*
X8223333Y-12731904D01*
X8270952Y-12827142D01*
X8318571Y-12874761D01*
X8413809Y-12922380D01*
X8699523Y-12922380D01*
X8794761Y-12874761D01*
X8842380Y-12827142D01*
%TO.C,J1*%
X84772380Y-55546666D02*
X85486666Y-55546666D01*
X85629523Y-55499047D01*
X85724761Y-55403809D01*
X85772380Y-55260952D01*
X85772380Y-55165714D01*
X85772380Y-56546666D02*
X85772380Y-55975238D01*
X85772380Y-56260952D02*
X84772380Y-56260952D01*
X84915238Y-56165714D01*
X85010476Y-56070476D01*
X85058095Y-55975238D01*
%TO.C,C1*%
X78906666Y-48657142D02*
X78954285Y-48704761D01*
X79097142Y-48752380D01*
X79192380Y-48752380D01*
X79335238Y-48704761D01*
X79430476Y-48609523D01*
X79478095Y-48514285D01*
X79525714Y-48323809D01*
X79525714Y-48180952D01*
X79478095Y-47990476D01*
X79430476Y-47895238D01*
X79335238Y-47800000D01*
X79192380Y-47752380D01*
X79097142Y-47752380D01*
X78954285Y-47800000D01*
X78906666Y-47847619D01*
X77954285Y-48752380D02*
X78525714Y-48752380D01*
X78240000Y-48752380D02*
X78240000Y-47752380D01*
X78335238Y-47895238D01*
X78430476Y-47990476D01*
X78525714Y-48038095D01*
%TO.C,J2*%
X9248333Y-45392380D02*
X9248333Y-46106666D01*
X9295952Y-46249523D01*
X9391190Y-46344761D01*
X9534047Y-46392380D01*
X9629285Y-46392380D01*
X8819761Y-45487619D02*
X8772142Y-45440000D01*
X8676904Y-45392380D01*
X8438809Y-45392380D01*
X8343571Y-45440000D01*
X8295952Y-45487619D01*
X8248333Y-45582857D01*
X8248333Y-45678095D01*
X8295952Y-45820952D01*
X8867380Y-46392380D01*
X8248333Y-46392380D01*
%TO.C,J4*%
X69522380Y-55496666D02*
X70236666Y-55496666D01*
X70379523Y-55449047D01*
X70474761Y-55353809D01*
X70522380Y-55210952D01*
X70522380Y-55115714D01*
X69855714Y-56401428D02*
X70522380Y-56401428D01*
X69474761Y-56163333D02*
X70189047Y-55925238D01*
X70189047Y-56544285D01*
%TO.C,D1*%
X45188095Y-9492380D02*
X45188095Y-8492380D01*
X44950000Y-8492380D01*
X44807142Y-8540000D01*
X44711904Y-8635238D01*
X44664285Y-8730476D01*
X44616666Y-8920952D01*
X44616666Y-9063809D01*
X44664285Y-9254285D01*
X44711904Y-9349523D01*
X44807142Y-9444761D01*
X44950000Y-9492380D01*
X45188095Y-9492380D01*
X43664285Y-9492380D02*
X44235714Y-9492380D01*
X43950000Y-9492380D02*
X43950000Y-8492380D01*
X44045238Y-8635238D01*
X44140476Y-8730476D01*
X44235714Y-8778095D01*
D11*
%TO.C,J5*%
X68500000Y-5140000D02*
X68500000Y-2480000D01*
X86400000Y-3810000D02*
X86400000Y-2480000D01*
X83800000Y-5140000D02*
X83800000Y-2480000D01*
X83800000Y-5140000D02*
X68500000Y-5140000D01*
X83800000Y-2480000D02*
X68500000Y-2480000D01*
X86400000Y-2480000D02*
X85070000Y-2480000D01*
%TO.C,D2*%
X34270000Y-6625000D02*
X34270000Y-3535000D01*
X34270000Y-6624830D02*
G75*
G03*
X39820000Y-5079538I2560000J1544830D01*
G01*
X39820000Y-5080462D02*
G75*
G03*
X34270000Y-3535170I-2990000J462D01*
G01*
X39330000Y-5080000D02*
G75*
G03*
X39330000Y-5080000I-2500000J0D01*
G01*
%TO.C,R1*%
X82479000Y-45974000D02*
X79869000Y-45974000D01*
X85219000Y-45974000D02*
G75*
G03*
X85219000Y-45974000I-1370000J0D01*
G01*
%TO.C,A1*%
X53340000Y-35570000D02*
X53340000Y-38240000D01*
X91440000Y-22870000D02*
X91440000Y-20200000D01*
X53340000Y-35570000D02*
X91440000Y-35570000D01*
X55880000Y-22870000D02*
X53340000Y-22870000D01*
X55880000Y-22870000D02*
X55880000Y-20200000D01*
X94110000Y-38240000D02*
X50670000Y-38240000D01*
X55880000Y-20200000D02*
X94110000Y-20200000D01*
X91440000Y-35570000D02*
X91440000Y-38240000D01*
X94110000Y-20200000D02*
X94110000Y-38240000D01*
X53340000Y-22870000D02*
X53340000Y-20200000D01*
X55880000Y-22870000D02*
X91440000Y-22870000D01*
X50670000Y-20200000D02*
X53340000Y-20200000D01*
X50670000Y-38240000D02*
X50670000Y-20200000D01*
%TO.C,D3*%
X26650000Y-6625000D02*
X26650000Y-3535000D01*
X26650000Y-6624830D02*
G75*
G03*
X32200000Y-5079538I2560000J1544830D01*
G01*
X32200000Y-5080462D02*
G75*
G03*
X26650000Y-3535170I-2990000J462D01*
G01*
X31710000Y-5080000D02*
G75*
G03*
X31710000Y-5080000I-2500000J0D01*
G01*
%TO.C,J3*%
X10220000Y-16510000D02*
X10220000Y-24190000D01*
X7560000Y-13910000D02*
X7560000Y-15240000D01*
X10220000Y-24190000D02*
X7560000Y-24190000D01*
X8890000Y-13910000D02*
X7560000Y-13910000D01*
X7560000Y-16510000D02*
X7560000Y-24190000D01*
X10220000Y-16510000D02*
X7560000Y-16510000D01*
%TO.C,J1*%
X83880000Y-55880000D02*
X83880000Y-54550000D01*
X83880000Y-54550000D02*
X82550000Y-54550000D01*
X81280000Y-54550000D02*
X73600000Y-54550000D01*
X81280000Y-57210000D02*
X81280000Y-54550000D01*
X73600000Y-57210000D02*
X73600000Y-54550000D01*
X81280000Y-57210000D02*
X73600000Y-57210000D01*
%TO.C,C1*%
X81210000Y-49430000D02*
X81210000Y-49745000D01*
X76270000Y-49430000D02*
X76270000Y-49745000D01*
X81210000Y-49430000D02*
X76270000Y-49430000D01*
X81210000Y-51855000D02*
X81210000Y-52170000D01*
X81210000Y-52170000D02*
X76270000Y-52170000D01*
X76270000Y-51855000D02*
X76270000Y-52170000D01*
%TO.C,J2*%
X8915000Y-44500000D02*
X10245000Y-44500000D01*
X10245000Y-41900000D02*
X10245000Y-34220000D01*
X7585000Y-41900000D02*
X10245000Y-41900000D01*
X7585000Y-41900000D02*
X7585000Y-34220000D01*
X7585000Y-34220000D02*
X10245000Y-34220000D01*
X10245000Y-44500000D02*
X10245000Y-43170000D01*
%TO.C,J4*%
X66030000Y-57160000D02*
X66030000Y-54500000D01*
X58350000Y-57160000D02*
X58350000Y-54500000D01*
X66030000Y-57160000D02*
X58350000Y-57160000D01*
X68630000Y-55830000D02*
X68630000Y-54500000D01*
X68630000Y-54500000D02*
X67300000Y-54500000D01*
X66030000Y-54500000D02*
X58350000Y-54500000D01*
%TO.C,D1*%
X41890000Y-6625000D02*
X41890000Y-3535000D01*
X47440000Y-5080462D02*
G75*
G03*
X41890000Y-3535170I-2990000J462D01*
G01*
X41890000Y-6624830D02*
G75*
G03*
X47440000Y-5079538I2560000J1544830D01*
G01*
X46950000Y-5080000D02*
G75*
G03*
X46950000Y-5080000I-2500000J0D01*
G01*
%TD*%
%LPC*%
D12*
%TO.C,REF\u002A\u002A*%
X95681800Y-56845200D03*
%TD*%
%TO.C,REF\u002A\u002A*%
X2413000Y-2286000D03*
%TD*%
%TO.C,REF\u002A\u002A*%
X95632288Y-2159000D03*
%TD*%
%TO.C,REF\u002A\u002A*%
X2514600Y-56616600D03*
%TD*%
D13*
%TO.C,J5*%
X85070000Y-3810000D03*
D14*
X82530000Y-3810000D03*
X79990000Y-3810000D03*
X77450000Y-3810000D03*
X74910000Y-3810000D03*
X72370000Y-3810000D03*
X69830000Y-3810000D03*
%TD*%
D15*
%TO.C,D2*%
X35560000Y-5080000D03*
D16*
X38100000Y-5080000D03*
%TD*%
D17*
%TO.C,R1*%
X83849000Y-45974000D03*
D18*
X78769000Y-45974000D03*
%TD*%
D19*
%TO.C,A1*%
X54610000Y-21600000D03*
D18*
X57150000Y-21600000D03*
X59690000Y-21600000D03*
X62230000Y-21600000D03*
X64770000Y-21600000D03*
X67310000Y-21600000D03*
X69850000Y-21600000D03*
X72390000Y-21600000D03*
X74930000Y-21600000D03*
X77470000Y-21600000D03*
X80010000Y-21600000D03*
X82550000Y-21600000D03*
X85090000Y-21600000D03*
X87630000Y-21600000D03*
X90170000Y-21600000D03*
X90170000Y-36840000D03*
X87630000Y-36840000D03*
X85090000Y-36840000D03*
X82550000Y-36840000D03*
X80010000Y-36840000D03*
X77470000Y-36840000D03*
X74930000Y-36840000D03*
X72390000Y-36840000D03*
X69850000Y-36840000D03*
X67310000Y-36840000D03*
X64770000Y-36840000D03*
X62230000Y-36840000D03*
X59690000Y-36840000D03*
X57150000Y-36840000D03*
X54610000Y-36840000D03*
%TD*%
D15*
%TO.C,D3*%
X27940000Y-5080000D03*
D16*
X30480000Y-5080000D03*
%TD*%
D13*
%TO.C,J3*%
X8890000Y-15240000D03*
D14*
X8890000Y-17780000D03*
X8890000Y-20320000D03*
X8890000Y-22860000D03*
%TD*%
D13*
%TO.C,J1*%
X82550000Y-55880000D03*
D14*
X80010000Y-55880000D03*
X77470000Y-55880000D03*
X74930000Y-55880000D03*
%TD*%
D17*
%TO.C,C1*%
X81240000Y-50800000D03*
X76240000Y-50800000D03*
%TD*%
D13*
%TO.C,J2*%
X8915000Y-43170000D03*
D14*
X8915000Y-40630000D03*
X8915000Y-38090000D03*
X8915000Y-35550000D03*
%TD*%
D13*
%TO.C,J4*%
X67300000Y-55830000D03*
D14*
X64760000Y-55830000D03*
X62220000Y-55830000D03*
X59680000Y-55830000D03*
%TD*%
D15*
%TO.C,D1*%
X43180000Y-5080000D03*
D16*
X45720000Y-5080000D03*
%TD*%
M02*
