%TF.GenerationSoftware,KiCad,Pcbnew,6.0.5-a6ca702e91~116~ubuntu20.04.1*%
%TF.CreationDate,2022-05-18T10:56:59+02:00*%
%TF.ProjectId,StationMeteo,53746174-696f-46e4-9d65-74656f2e6b69,rev?*%
%TF.SameCoordinates,PX21e9a40PY196f3b0*%
%TF.FileFunction,Legend,Top*%
%TF.FilePolarity,Positive*%
%FSLAX46Y46*%
G04 Gerber Fmt 4.6, Leading zero omitted, Abs format (unit mm)*
G04 Created by KiCad (PCBNEW 6.0.5-a6ca702e91~116~ubuntu20.04.1) date 2022-05-18 10:56:59*
%MOMM*%
%LPD*%
G01*
G04 APERTURE LIST*
G04 Aperture macros list*
%AMRoundRect*
0 Rectangle with rounded corners*
0 $1 Rounding radius*
0 $2 $3 $4 $5 $6 $7 $8 $9 X,Y pos of 4 corners*
0 Add a 4 corners polygon primitive as box body*
4,1,4,$2,$3,$4,$5,$6,$7,$8,$9,$2,$3,0*
0 Add four circle primitives for the rounded corners*
1,1,$1+$1,$2,$3*
1,1,$1+$1,$4,$5*
1,1,$1+$1,$6,$7*
1,1,$1+$1,$8,$9*
0 Add four rect primitives between the rounded corners*
20,1,$1+$1,$2,$3,$4,$5,0*
20,1,$1+$1,$4,$5,$6,$7,0*
20,1,$1+$1,$6,$7,$8,$9,0*
20,1,$1+$1,$8,$9,$2,$3,0*%
G04 Aperture macros list end*
%ADD10C,0.150000*%
%ADD11C,0.120000*%
%ADD12RoundRect,0.250000X0.350000X0.450000X-0.350000X0.450000X-0.350000X-0.450000X0.350000X-0.450000X0*%
%ADD13RoundRect,0.250000X-0.450000X0.350000X-0.450000X-0.350000X0.450000X-0.350000X0.450000X0.350000X0*%
%ADD14RoundRect,0.150000X0.587500X0.150000X-0.587500X0.150000X-0.587500X-0.150000X0.587500X-0.150000X0*%
%ADD15C,3.500000*%
%ADD16R,1.700000X1.700000*%
%ADD17O,1.700000X1.700000*%
%ADD18R,1.800000X1.800000*%
%ADD19C,1.800000*%
%ADD20C,1.600000*%
%ADD21O,1.600000X1.600000*%
%ADD22R,1.600000X1.600000*%
G04 APERTURE END LIST*
D10*
%TO.C,R2*%
X16089333Y-22422380D02*
X15756000Y-21946190D01*
X15517904Y-22422380D02*
X15517904Y-21422380D01*
X15898857Y-21422380D01*
X15994095Y-21470000D01*
X16041714Y-21517619D01*
X16089333Y-21612857D01*
X16089333Y-21755714D01*
X16041714Y-21850952D01*
X15994095Y-21898571D01*
X15898857Y-21946190D01*
X15517904Y-21946190D01*
X16470285Y-21517619D02*
X16517904Y-21470000D01*
X16613142Y-21422380D01*
X16851238Y-21422380D01*
X16946476Y-21470000D01*
X16994095Y-21517619D01*
X17041714Y-21612857D01*
X17041714Y-21708095D01*
X16994095Y-21850952D01*
X16422666Y-22422380D01*
X17041714Y-22422380D01*
%TO.C,R8*%
X64967380Y-16676666D02*
X64491190Y-17010000D01*
X64967380Y-17248095D02*
X63967380Y-17248095D01*
X63967380Y-16867142D01*
X64015000Y-16771904D01*
X64062619Y-16724285D01*
X64157857Y-16676666D01*
X64300714Y-16676666D01*
X64395952Y-16724285D01*
X64443571Y-16771904D01*
X64491190Y-16867142D01*
X64491190Y-17248095D01*
X64395952Y-16105238D02*
X64348333Y-16200476D01*
X64300714Y-16248095D01*
X64205476Y-16295714D01*
X64157857Y-16295714D01*
X64062619Y-16248095D01*
X64015000Y-16200476D01*
X63967380Y-16105238D01*
X63967380Y-15914761D01*
X64015000Y-15819523D01*
X64062619Y-15771904D01*
X64157857Y-15724285D01*
X64205476Y-15724285D01*
X64300714Y-15771904D01*
X64348333Y-15819523D01*
X64395952Y-15914761D01*
X64395952Y-16105238D01*
X64443571Y-16200476D01*
X64491190Y-16248095D01*
X64586428Y-16295714D01*
X64776904Y-16295714D01*
X64872142Y-16248095D01*
X64919761Y-16200476D01*
X64967380Y-16105238D01*
X64967380Y-15914761D01*
X64919761Y-15819523D01*
X64872142Y-15771904D01*
X64776904Y-15724285D01*
X64586428Y-15724285D01*
X64491190Y-15771904D01*
X64443571Y-15819523D01*
X64395952Y-15914761D01*
%TO.C,Q1*%
X20224761Y-41047619D02*
X20129523Y-41000000D01*
X20034285Y-40904761D01*
X19891428Y-40761904D01*
X19796190Y-40714285D01*
X19700952Y-40714285D01*
X19748571Y-40952380D02*
X19653333Y-40904761D01*
X19558095Y-40809523D01*
X19510476Y-40619047D01*
X19510476Y-40285714D01*
X19558095Y-40095238D01*
X19653333Y-40000000D01*
X19748571Y-39952380D01*
X19939047Y-39952380D01*
X20034285Y-40000000D01*
X20129523Y-40095238D01*
X20177142Y-40285714D01*
X20177142Y-40619047D01*
X20129523Y-40809523D01*
X20034285Y-40904761D01*
X19939047Y-40952380D01*
X19748571Y-40952380D01*
X21129523Y-40952380D02*
X20558095Y-40952380D01*
X20843809Y-40952380D02*
X20843809Y-39952380D01*
X20748571Y-40095238D01*
X20653333Y-40190476D01*
X20558095Y-40238095D01*
%TO.C,R6*%
X71952380Y-16676666D02*
X71476190Y-17010000D01*
X71952380Y-17248095D02*
X70952380Y-17248095D01*
X70952380Y-16867142D01*
X71000000Y-16771904D01*
X71047619Y-16724285D01*
X71142857Y-16676666D01*
X71285714Y-16676666D01*
X71380952Y-16724285D01*
X71428571Y-16771904D01*
X71476190Y-16867142D01*
X71476190Y-17248095D01*
X70952380Y-15819523D02*
X70952380Y-16010000D01*
X71000000Y-16105238D01*
X71047619Y-16152857D01*
X71190476Y-16248095D01*
X71380952Y-16295714D01*
X71761904Y-16295714D01*
X71857142Y-16248095D01*
X71904761Y-16200476D01*
X71952380Y-16105238D01*
X71952380Y-15914761D01*
X71904761Y-15819523D01*
X71857142Y-15771904D01*
X71761904Y-15724285D01*
X71523809Y-15724285D01*
X71428571Y-15771904D01*
X71380952Y-15819523D01*
X71333333Y-15914761D01*
X71333333Y-16105238D01*
X71380952Y-16200476D01*
X71428571Y-16248095D01*
X71523809Y-16295714D01*
%TO.C,REF\u002A\u002A*%
X92818039Y-52797580D02*
X92484706Y-52321390D01*
X92246611Y-52797580D02*
X92246611Y-51797580D01*
X92627563Y-51797580D01*
X92722801Y-51845200D01*
X92770420Y-51892819D01*
X92818039Y-51988057D01*
X92818039Y-52130914D01*
X92770420Y-52226152D01*
X92722801Y-52273771D01*
X92627563Y-52321390D01*
X92246611Y-52321390D01*
X93246611Y-52273771D02*
X93579944Y-52273771D01*
X93722801Y-52797580D02*
X93246611Y-52797580D01*
X93246611Y-51797580D01*
X93722801Y-51797580D01*
X94484706Y-52273771D02*
X94151373Y-52273771D01*
X94151373Y-52797580D02*
X94151373Y-51797580D01*
X94627563Y-51797580D01*
X95151373Y-51797580D02*
X95151373Y-52035676D01*
X94913277Y-51940438D02*
X95151373Y-52035676D01*
X95389468Y-51940438D01*
X95008515Y-52226152D02*
X95151373Y-52035676D01*
X95294230Y-52226152D01*
X95913277Y-51797580D02*
X95913277Y-52035676D01*
X95675182Y-51940438D02*
X95913277Y-52035676D01*
X96151373Y-51940438D01*
X95770420Y-52226152D02*
X95913277Y-52035676D01*
X96056134Y-52226152D01*
%TO.C,R5*%
X29646724Y-39763920D02*
X29170534Y-40097254D01*
X29646724Y-40335349D02*
X28646724Y-40335349D01*
X28646724Y-39954396D01*
X28694344Y-39859158D01*
X28741963Y-39811539D01*
X28837201Y-39763920D01*
X28980058Y-39763920D01*
X29075296Y-39811539D01*
X29122915Y-39859158D01*
X29170534Y-39954396D01*
X29170534Y-40335349D01*
X28646724Y-38859158D02*
X28646724Y-39335349D01*
X29122915Y-39382968D01*
X29075296Y-39335349D01*
X29027677Y-39240111D01*
X29027677Y-39002015D01*
X29075296Y-38906777D01*
X29122915Y-38859158D01*
X29218153Y-38811539D01*
X29456248Y-38811539D01*
X29551486Y-38859158D01*
X29599105Y-38906777D01*
X29646724Y-39002015D01*
X29646724Y-39240111D01*
X29599105Y-39335349D01*
X29551486Y-39382968D01*
%TO.C,REF\u002A\u002A*%
X6842664Y-3411429D02*
X6509331Y-2935239D01*
X6271236Y-3411429D02*
X6271236Y-2411429D01*
X6652188Y-2411429D01*
X6747426Y-2459049D01*
X6795045Y-2506668D01*
X6842664Y-2601906D01*
X6842664Y-2744763D01*
X6795045Y-2840001D01*
X6747426Y-2887620D01*
X6652188Y-2935239D01*
X6271236Y-2935239D01*
X7271236Y-2887620D02*
X7604569Y-2887620D01*
X7747426Y-3411429D02*
X7271236Y-3411429D01*
X7271236Y-2411429D01*
X7747426Y-2411429D01*
X8509331Y-2887620D02*
X8175998Y-2887620D01*
X8175998Y-3411429D02*
X8175998Y-2411429D01*
X8652188Y-2411429D01*
X9175998Y-2411429D02*
X9175998Y-2649525D01*
X8937902Y-2554287D02*
X9175998Y-2649525D01*
X9414093Y-2554287D01*
X9033140Y-2840001D02*
X9175998Y-2649525D01*
X9318855Y-2840001D01*
X9937902Y-2411429D02*
X9937902Y-2649525D01*
X9699807Y-2554287D02*
X9937902Y-2649525D01*
X10175998Y-2554287D01*
X9795045Y-2840001D02*
X9937902Y-2649525D01*
X10080759Y-2840001D01*
%TO.C,R4*%
X17342380Y-37250666D02*
X16866190Y-37584000D01*
X17342380Y-37822095D02*
X16342380Y-37822095D01*
X16342380Y-37441142D01*
X16390000Y-37345904D01*
X16437619Y-37298285D01*
X16532857Y-37250666D01*
X16675714Y-37250666D01*
X16770952Y-37298285D01*
X16818571Y-37345904D01*
X16866190Y-37441142D01*
X16866190Y-37822095D01*
X16675714Y-36393523D02*
X17342380Y-36393523D01*
X16294761Y-36631619D02*
X17009047Y-36869714D01*
X17009047Y-36250666D01*
%TO.C,REF\u002A\u002A*%
X93585763Y-8793797D02*
X93252430Y-8317607D01*
X93014335Y-8793797D02*
X93014335Y-7793797D01*
X93395287Y-7793797D01*
X93490525Y-7841417D01*
X93538144Y-7889036D01*
X93585763Y-7984274D01*
X93585763Y-8127131D01*
X93538144Y-8222369D01*
X93490525Y-8269988D01*
X93395287Y-8317607D01*
X93014335Y-8317607D01*
X94014335Y-8269988D02*
X94347668Y-8269988D01*
X94490525Y-8793797D02*
X94014335Y-8793797D01*
X94014335Y-7793797D01*
X94490525Y-7793797D01*
X95252430Y-8269988D02*
X94919097Y-8269988D01*
X94919097Y-8793797D02*
X94919097Y-7793797D01*
X95395287Y-7793797D01*
X95919097Y-7793797D02*
X95919097Y-8031893D01*
X95681001Y-7936655D02*
X95919097Y-8031893D01*
X96157192Y-7936655D01*
X95776239Y-8222369D02*
X95919097Y-8031893D01*
X96061954Y-8222369D01*
X96681001Y-7793797D02*
X96681001Y-8031893D01*
X96442906Y-7936655D02*
X96681001Y-8031893D01*
X96919097Y-7936655D01*
X96538144Y-8222369D02*
X96681001Y-8031893D01*
X96823858Y-8222369D01*
%TO.C,Q2*%
X31654761Y-46127619D02*
X31559523Y-46080000D01*
X31464285Y-45984761D01*
X31321428Y-45841904D01*
X31226190Y-45794285D01*
X31130952Y-45794285D01*
X31178571Y-46032380D02*
X31083333Y-45984761D01*
X30988095Y-45889523D01*
X30940476Y-45699047D01*
X30940476Y-45365714D01*
X30988095Y-45175238D01*
X31083333Y-45080000D01*
X31178571Y-45032380D01*
X31369047Y-45032380D01*
X31464285Y-45080000D01*
X31559523Y-45175238D01*
X31607142Y-45365714D01*
X31607142Y-45699047D01*
X31559523Y-45889523D01*
X31464285Y-45984761D01*
X31369047Y-46032380D01*
X31178571Y-46032380D01*
X31988095Y-45127619D02*
X32035714Y-45080000D01*
X32130952Y-45032380D01*
X32369047Y-45032380D01*
X32464285Y-45080000D01*
X32511904Y-45127619D01*
X32559523Y-45222857D01*
X32559523Y-45318095D01*
X32511904Y-45460952D01*
X31940476Y-46032380D01*
X32559523Y-46032380D01*
%TO.C,REF\u002A\u002A*%
X6944264Y-57742029D02*
X6610931Y-57265839D01*
X6372836Y-57742029D02*
X6372836Y-56742029D01*
X6753788Y-56742029D01*
X6849026Y-56789649D01*
X6896645Y-56837268D01*
X6944264Y-56932506D01*
X6944264Y-57075363D01*
X6896645Y-57170601D01*
X6849026Y-57218220D01*
X6753788Y-57265839D01*
X6372836Y-57265839D01*
X7372836Y-57218220D02*
X7706169Y-57218220D01*
X7849026Y-57742029D02*
X7372836Y-57742029D01*
X7372836Y-56742029D01*
X7849026Y-56742029D01*
X8610931Y-57218220D02*
X8277598Y-57218220D01*
X8277598Y-57742029D02*
X8277598Y-56742029D01*
X8753788Y-56742029D01*
X9277598Y-56742029D02*
X9277598Y-56980125D01*
X9039502Y-56884887D02*
X9277598Y-56980125D01*
X9515693Y-56884887D01*
X9134740Y-57170601D02*
X9277598Y-56980125D01*
X9420455Y-57170601D01*
X10039502Y-56742029D02*
X10039502Y-56980125D01*
X9801407Y-56884887D02*
X10039502Y-56980125D01*
X10277598Y-56884887D01*
X9896645Y-57170601D02*
X10039502Y-56980125D01*
X10182359Y-57170601D01*
%TO.C,R7*%
X68142380Y-16676666D02*
X67666190Y-17010000D01*
X68142380Y-17248095D02*
X67142380Y-17248095D01*
X67142380Y-16867142D01*
X67190000Y-16771904D01*
X67237619Y-16724285D01*
X67332857Y-16676666D01*
X67475714Y-16676666D01*
X67570952Y-16724285D01*
X67618571Y-16771904D01*
X67666190Y-16867142D01*
X67666190Y-17248095D01*
X67142380Y-16343333D02*
X67142380Y-15676666D01*
X68142380Y-16105238D01*
%TO.C,R3*%
X16089333Y-18612380D02*
X15756000Y-18136190D01*
X15517904Y-18612380D02*
X15517904Y-17612380D01*
X15898857Y-17612380D01*
X15994095Y-17660000D01*
X16041714Y-17707619D01*
X16089333Y-17802857D01*
X16089333Y-17945714D01*
X16041714Y-18040952D01*
X15994095Y-18088571D01*
X15898857Y-18136190D01*
X15517904Y-18136190D01*
X16422666Y-17612380D02*
X17041714Y-17612380D01*
X16708380Y-17993333D01*
X16851238Y-17993333D01*
X16946476Y-18040952D01*
X16994095Y-18088571D01*
X17041714Y-18183809D01*
X17041714Y-18421904D01*
X16994095Y-18517142D01*
X16946476Y-18564761D01*
X16851238Y-18612380D01*
X16565523Y-18612380D01*
X16470285Y-18564761D01*
X16422666Y-18517142D01*
D11*
%TO.C,R2*%
X16483064Y-19585000D02*
X16028936Y-19585000D01*
X16483064Y-21055000D02*
X16028936Y-21055000D01*
%TO.C,R8*%
X63600000Y-16282936D02*
X63600000Y-16737064D01*
X62130000Y-16282936D02*
X62130000Y-16737064D01*
%TO.C,Q1*%
X20320000Y-36540000D02*
X20970000Y-36540000D01*
X20320000Y-36540000D02*
X19670000Y-36540000D01*
X20320000Y-39660000D02*
X19670000Y-39660000D01*
X20320000Y-39660000D02*
X21995000Y-39660000D01*
%TO.C,R6*%
X69115000Y-16282936D02*
X69115000Y-16737064D01*
X70585000Y-16282936D02*
X70585000Y-16737064D01*
%TO.C,R5*%
X26809344Y-39370190D02*
X26809344Y-39824318D01*
X28279344Y-39370190D02*
X28279344Y-39824318D01*
%TO.C,R4*%
X15975000Y-36856936D02*
X15975000Y-37311064D01*
X14505000Y-36856936D02*
X14505000Y-37311064D01*
%TO.C,Q2*%
X31750000Y-41620000D02*
X32400000Y-41620000D01*
X31750000Y-44740000D02*
X33425000Y-44740000D01*
X31750000Y-41620000D02*
X31100000Y-41620000D01*
X31750000Y-44740000D02*
X31100000Y-44740000D01*
%TO.C,R7*%
X66775000Y-16282936D02*
X66775000Y-16737064D01*
X65305000Y-16282936D02*
X65305000Y-16737064D01*
%TO.C,R3*%
X16483064Y-17245000D02*
X16028936Y-17245000D01*
X16483064Y-15775000D02*
X16028936Y-15775000D01*
%TD*%
%LPC*%
D12*
%TO.C,R2*%
X17256000Y-20320000D03*
X15256000Y-20320000D03*
%TD*%
D13*
%TO.C,R8*%
X62865000Y-15510000D03*
X62865000Y-17510000D03*
%TD*%
D14*
%TO.C,Q1*%
X21257500Y-39050000D03*
X21257500Y-37150000D03*
X19382500Y-38100000D03*
%TD*%
D13*
%TO.C,R6*%
X69850000Y-15510000D03*
X69850000Y-17510000D03*
%TD*%
D15*
%TO.C,REF\u002A\u002A*%
X95681800Y-56845200D03*
%TD*%
D13*
%TO.C,R5*%
X27544344Y-38597254D03*
X27544344Y-40597254D03*
%TD*%
D15*
%TO.C,REF\u002A\u002A*%
X2413000Y-2286000D03*
%TD*%
D13*
%TO.C,R4*%
X15240000Y-36084000D03*
X15240000Y-38084000D03*
%TD*%
D15*
%TO.C,REF\u002A\u002A*%
X95632288Y-2159000D03*
%TD*%
D14*
%TO.C,Q2*%
X32687500Y-44130000D03*
X32687500Y-42230000D03*
X30812500Y-43180000D03*
%TD*%
D15*
%TO.C,REF\u002A\u002A*%
X2514600Y-56616600D03*
%TD*%
D13*
%TO.C,R7*%
X66040000Y-15510000D03*
X66040000Y-17510000D03*
%TD*%
D12*
%TO.C,R3*%
X17256000Y-16510000D03*
X15256000Y-16510000D03*
%TD*%
D16*
%TO.C,J5*%
X85070000Y-3810000D03*
D17*
X82530000Y-3810000D03*
X79990000Y-3810000D03*
X77450000Y-3810000D03*
X74910000Y-3810000D03*
X72370000Y-3810000D03*
X69830000Y-3810000D03*
%TD*%
D18*
%TO.C,D2*%
X35560000Y-5080000D03*
D19*
X38100000Y-5080000D03*
%TD*%
D20*
%TO.C,R1*%
X83849000Y-45974000D03*
D21*
X78769000Y-45974000D03*
%TD*%
D22*
%TO.C,A1*%
X54610000Y-21600000D03*
D21*
X57150000Y-21600000D03*
X59690000Y-21600000D03*
X62230000Y-21600000D03*
X64770000Y-21600000D03*
X67310000Y-21600000D03*
X69850000Y-21600000D03*
X72390000Y-21600000D03*
X74930000Y-21600000D03*
X77470000Y-21600000D03*
X80010000Y-21600000D03*
X82550000Y-21600000D03*
X85090000Y-21600000D03*
X87630000Y-21600000D03*
X90170000Y-21600000D03*
X90170000Y-36840000D03*
X87630000Y-36840000D03*
X85090000Y-36840000D03*
X82550000Y-36840000D03*
X80010000Y-36840000D03*
X77470000Y-36840000D03*
X74930000Y-36840000D03*
X72390000Y-36840000D03*
X69850000Y-36840000D03*
X67310000Y-36840000D03*
X64770000Y-36840000D03*
X62230000Y-36840000D03*
X59690000Y-36840000D03*
X57150000Y-36840000D03*
X54610000Y-36840000D03*
%TD*%
D18*
%TO.C,D3*%
X27940000Y-5080000D03*
D19*
X30480000Y-5080000D03*
%TD*%
D16*
%TO.C,J3*%
X8890000Y-15240000D03*
D17*
X8890000Y-17780000D03*
X8890000Y-20320000D03*
X8890000Y-22860000D03*
%TD*%
D16*
%TO.C,J1*%
X82550000Y-55880000D03*
D17*
X80010000Y-55880000D03*
X77470000Y-55880000D03*
X74930000Y-55880000D03*
%TD*%
D20*
%TO.C,C1*%
X81240000Y-50800000D03*
X76240000Y-50800000D03*
%TD*%
D16*
%TO.C,J2*%
X8915000Y-43170000D03*
D17*
X8915000Y-40630000D03*
X8915000Y-38090000D03*
X8915000Y-35550000D03*
%TD*%
D16*
%TO.C,J4*%
X67300000Y-55830000D03*
D17*
X64760000Y-55830000D03*
X62220000Y-55830000D03*
X59680000Y-55830000D03*
%TD*%
D18*
%TO.C,D1*%
X43180000Y-5080000D03*
D19*
X45720000Y-5080000D03*
%TD*%
M02*
