%TF.GenerationSoftware,KiCad,Pcbnew,6.0.5-a6ca702e91~116~ubuntu20.04.1*%
%TF.CreationDate,2022-05-18T10:56:59+02:00*%
%TF.ProjectId,StationMeteo,53746174-696f-46e4-9d65-74656f2e6b69,rev?*%
%TF.SameCoordinates,PX21e9a40PY196f3b0*%
%TF.FileFunction,Soldermask,Bot*%
%TF.FilePolarity,Negative*%
%FSLAX46Y46*%
G04 Gerber Fmt 4.6, Leading zero omitted, Abs format (unit mm)*
G04 Created by KiCad (PCBNEW 6.0.5-a6ca702e91~116~ubuntu20.04.1) date 2022-05-18 10:56:59*
%MOMM*%
%LPD*%
G01*
G04 APERTURE LIST*
%ADD10C,3.500000*%
%ADD11R,1.700000X1.700000*%
%ADD12O,1.700000X1.700000*%
%ADD13R,1.800000X1.800000*%
%ADD14C,1.800000*%
%ADD15C,1.600000*%
%ADD16O,1.600000X1.600000*%
%ADD17R,1.600000X1.600000*%
G04 APERTURE END LIST*
D10*
%TO.C,REF\u002A\u002A*%
X95681800Y-56845200D03*
%TD*%
%TO.C,REF\u002A\u002A*%
X2413000Y-2286000D03*
%TD*%
%TO.C,REF\u002A\u002A*%
X95632288Y-2159000D03*
%TD*%
%TO.C,REF\u002A\u002A*%
X2514600Y-56616600D03*
%TD*%
D11*
%TO.C,J5*%
X85070000Y-3810000D03*
D12*
X82530000Y-3810000D03*
X79990000Y-3810000D03*
X77450000Y-3810000D03*
X74910000Y-3810000D03*
X72370000Y-3810000D03*
X69830000Y-3810000D03*
%TD*%
D13*
%TO.C,D2*%
X35560000Y-5080000D03*
D14*
X38100000Y-5080000D03*
%TD*%
D15*
%TO.C,R1*%
X83849000Y-45974000D03*
D16*
X78769000Y-45974000D03*
%TD*%
D17*
%TO.C,A1*%
X54610000Y-21600000D03*
D16*
X57150000Y-21600000D03*
X59690000Y-21600000D03*
X62230000Y-21600000D03*
X64770000Y-21600000D03*
X67310000Y-21600000D03*
X69850000Y-21600000D03*
X72390000Y-21600000D03*
X74930000Y-21600000D03*
X77470000Y-21600000D03*
X80010000Y-21600000D03*
X82550000Y-21600000D03*
X85090000Y-21600000D03*
X87630000Y-21600000D03*
X90170000Y-21600000D03*
X90170000Y-36840000D03*
X87630000Y-36840000D03*
X85090000Y-36840000D03*
X82550000Y-36840000D03*
X80010000Y-36840000D03*
X77470000Y-36840000D03*
X74930000Y-36840000D03*
X72390000Y-36840000D03*
X69850000Y-36840000D03*
X67310000Y-36840000D03*
X64770000Y-36840000D03*
X62230000Y-36840000D03*
X59690000Y-36840000D03*
X57150000Y-36840000D03*
X54610000Y-36840000D03*
%TD*%
D13*
%TO.C,D3*%
X27940000Y-5080000D03*
D14*
X30480000Y-5080000D03*
%TD*%
D11*
%TO.C,J3*%
X8890000Y-15240000D03*
D12*
X8890000Y-17780000D03*
X8890000Y-20320000D03*
X8890000Y-22860000D03*
%TD*%
D11*
%TO.C,J1*%
X82550000Y-55880000D03*
D12*
X80010000Y-55880000D03*
X77470000Y-55880000D03*
X74930000Y-55880000D03*
%TD*%
D15*
%TO.C,C1*%
X81240000Y-50800000D03*
X76240000Y-50800000D03*
%TD*%
D11*
%TO.C,J2*%
X8915000Y-43170000D03*
D12*
X8915000Y-40630000D03*
X8915000Y-38090000D03*
X8915000Y-35550000D03*
%TD*%
D11*
%TO.C,J4*%
X67300000Y-55830000D03*
D12*
X64760000Y-55830000D03*
X62220000Y-55830000D03*
X59680000Y-55830000D03*
%TD*%
D13*
%TO.C,D1*%
X43180000Y-5080000D03*
D14*
X45720000Y-5080000D03*
%TD*%
M02*
