%TF.GenerationSoftware,KiCad,Pcbnew,6.0.5-a6ca702e91~116~ubuntu20.04.1*%
%TF.CreationDate,2022-05-18T10:56:59+02:00*%
%TF.ProjectId,StationMeteo,53746174-696f-46e4-9d65-74656f2e6b69,rev?*%
%TF.SameCoordinates,PX21e9a40PY196f3b0*%
%TF.FileFunction,Copper,L1,Top*%
%TF.FilePolarity,Positive*%
%FSLAX46Y46*%
G04 Gerber Fmt 4.6, Leading zero omitted, Abs format (unit mm)*
G04 Created by KiCad (PCBNEW 6.0.5-a6ca702e91~116~ubuntu20.04.1) date 2022-05-18 10:56:59*
%MOMM*%
%LPD*%
G01*
G04 APERTURE LIST*
G04 Aperture macros list*
%AMRoundRect*
0 Rectangle with rounded corners*
0 $1 Rounding radius*
0 $2 $3 $4 $5 $6 $7 $8 $9 X,Y pos of 4 corners*
0 Add a 4 corners polygon primitive as box body*
4,1,4,$2,$3,$4,$5,$6,$7,$8,$9,$2,$3,0*
0 Add four circle primitives for the rounded corners*
1,1,$1+$1,$2,$3*
1,1,$1+$1,$4,$5*
1,1,$1+$1,$6,$7*
1,1,$1+$1,$8,$9*
0 Add four rect primitives between the rounded corners*
20,1,$1+$1,$2,$3,$4,$5,0*
20,1,$1+$1,$4,$5,$6,$7,0*
20,1,$1+$1,$6,$7,$8,$9,0*
20,1,$1+$1,$8,$9,$2,$3,0*%
G04 Aperture macros list end*
%TA.AperFunction,SMDPad,CuDef*%
%ADD10RoundRect,0.250000X0.350000X0.450000X-0.350000X0.450000X-0.350000X-0.450000X0.350000X-0.450000X0*%
%TD*%
%TA.AperFunction,SMDPad,CuDef*%
%ADD11RoundRect,0.250000X-0.450000X0.350000X-0.450000X-0.350000X0.450000X-0.350000X0.450000X0.350000X0*%
%TD*%
%TA.AperFunction,SMDPad,CuDef*%
%ADD12RoundRect,0.150000X0.587500X0.150000X-0.587500X0.150000X-0.587500X-0.150000X0.587500X-0.150000X0*%
%TD*%
%TA.AperFunction,ComponentPad*%
%ADD13R,1.700000X1.700000*%
%TD*%
%TA.AperFunction,ComponentPad*%
%ADD14O,1.700000X1.700000*%
%TD*%
%TA.AperFunction,ComponentPad*%
%ADD15R,1.800000X1.800000*%
%TD*%
%TA.AperFunction,ComponentPad*%
%ADD16C,1.800000*%
%TD*%
%TA.AperFunction,ComponentPad*%
%ADD17C,1.600000*%
%TD*%
%TA.AperFunction,ComponentPad*%
%ADD18O,1.600000X1.600000*%
%TD*%
%TA.AperFunction,ComponentPad*%
%ADD19R,1.600000X1.600000*%
%TD*%
%TA.AperFunction,ViaPad*%
%ADD20C,0.800000*%
%TD*%
%TA.AperFunction,Conductor*%
%ADD21C,0.508000*%
%TD*%
G04 APERTURE END LIST*
D10*
%TO.P,R2,1*%
%TO.N,3.3V*%
X17256000Y-20320000D03*
%TO.P,R2,2*%
%TO.N,SDA*%
X15256000Y-20320000D03*
%TD*%
D11*
%TO.P,R8,1*%
%TO.N,Net-(D3-Pad2)*%
X62865000Y-15510000D03*
%TO.P,R8,2*%
%TO.N,Net-(A1-Pad5)*%
X62865000Y-17510000D03*
%TD*%
D12*
%TO.P,Q1,1,G*%
%TO.N,3.3V*%
X21257500Y-39050000D03*
%TO.P,Q1,2,S*%
%TO.N,SDA*%
X21257500Y-37150000D03*
%TO.P,Q1,3,D*%
%TO.N,SDA-5V*%
X19382500Y-38100000D03*
%TD*%
D11*
%TO.P,R6,1*%
%TO.N,Net-(D1-Pad2)*%
X69850000Y-15510000D03*
%TO.P,R6,2*%
%TO.N,Net-(A1-Pad7)*%
X69850000Y-17510000D03*
%TD*%
%TO.P,R5,1*%
%TO.N,5V*%
X27544344Y-38597254D03*
%TO.P,R5,2*%
%TO.N,SCL-5V*%
X27544344Y-40597254D03*
%TD*%
%TO.P,R4,1*%
%TO.N,5V*%
X15240000Y-36084000D03*
%TO.P,R4,2*%
%TO.N,SDA-5V*%
X15240000Y-38084000D03*
%TD*%
D12*
%TO.P,Q2,1,G*%
%TO.N,3.3V*%
X32687500Y-44130000D03*
%TO.P,Q2,2,S*%
%TO.N,SCL*%
X32687500Y-42230000D03*
%TO.P,Q2,3,D*%
%TO.N,SCL-5V*%
X30812500Y-43180000D03*
%TD*%
D11*
%TO.P,R7,1*%
%TO.N,Net-(D2-Pad2)*%
X66040000Y-15510000D03*
%TO.P,R7,2*%
%TO.N,Net-(A1-Pad6)*%
X66040000Y-17510000D03*
%TD*%
D10*
%TO.P,R3,1*%
%TO.N,3.3V*%
X17256000Y-16510000D03*
%TO.P,R3,2*%
%TO.N,SCL*%
X15256000Y-16510000D03*
%TD*%
D13*
%TO.P,J5,1,Pin_1*%
%TO.N,unconnected-(J5-Pad1)*%
X85070000Y-3810000D03*
D14*
%TO.P,J5,2,Pin_2*%
%TO.N,WAKE_CCS*%
X82530000Y-3810000D03*
%TO.P,J5,3,Pin_3*%
%TO.N,RST_CSS*%
X79990000Y-3810000D03*
%TO.P,J5,4,Pin_4*%
%TO.N,SCL*%
X77450000Y-3810000D03*
%TO.P,J5,5,Pin_5*%
%TO.N,SDA*%
X74910000Y-3810000D03*
%TO.P,J5,6,Pin_6*%
%TO.N,3.3V*%
X72370000Y-3810000D03*
%TO.P,J5,7,Pin_7*%
%TO.N,GND*%
X69830000Y-3810000D03*
%TD*%
D15*
%TO.P,D2,1,K*%
%TO.N,GND*%
X35560000Y-5080000D03*
D16*
%TO.P,D2,2,A*%
%TO.N,Net-(D2-Pad2)*%
X38100000Y-5080000D03*
%TD*%
D17*
%TO.P,R1,1*%
%TO.N,3.3V*%
X83849000Y-45974000D03*
D18*
%TO.P,R1,2*%
%TO.N,DHT22*%
X78769000Y-45974000D03*
%TD*%
D19*
%TO.P,A1,1,D1/TX*%
%TO.N,unconnected-(A1-Pad1)*%
X54610000Y-21600000D03*
D18*
%TO.P,A1,2,D0/RX*%
%TO.N,unconnected-(A1-Pad2)*%
X57150000Y-21600000D03*
%TO.P,A1,3,~{RESET}*%
%TO.N,unconnected-(A1-Pad3)*%
X59690000Y-21600000D03*
%TO.P,A1,4,GND*%
%TO.N,GND*%
X62230000Y-21600000D03*
%TO.P,A1,5,D2*%
%TO.N,Net-(A1-Pad5)*%
X64770000Y-21600000D03*
%TO.P,A1,6,D3*%
%TO.N,Net-(A1-Pad6)*%
X67310000Y-21600000D03*
%TO.P,A1,7,D4*%
%TO.N,Net-(A1-Pad7)*%
X69850000Y-21600000D03*
%TO.P,A1,8,D5*%
%TO.N,unconnected-(A1-Pad8)*%
X72390000Y-21600000D03*
%TO.P,A1,9,D6*%
%TO.N,unconnected-(A1-Pad9)*%
X74930000Y-21600000D03*
%TO.P,A1,10,D7*%
%TO.N,unconnected-(A1-Pad10)*%
X77470000Y-21600000D03*
%TO.P,A1,11,D8*%
%TO.N,DHT22*%
X80010000Y-21600000D03*
%TO.P,A1,12,D9*%
%TO.N,unconnected-(A1-Pad12)*%
X82550000Y-21600000D03*
%TO.P,A1,13,D10*%
%TO.N,RST_CSS*%
X85090000Y-21600000D03*
%TO.P,A1,14,D11*%
%TO.N,WAKE_CCS*%
X87630000Y-21600000D03*
%TO.P,A1,15,D12*%
%TO.N,unconnected-(A1-Pad15)*%
X90170000Y-21600000D03*
%TO.P,A1,16,D13*%
%TO.N,unconnected-(A1-Pad16)*%
X90170000Y-36840000D03*
%TO.P,A1,17,3V3*%
%TO.N,3.3V*%
X87630000Y-36840000D03*
%TO.P,A1,18,AREF*%
%TO.N,unconnected-(A1-Pad18)*%
X85090000Y-36840000D03*
%TO.P,A1,19,A0*%
%TO.N,unconnected-(A1-Pad19)*%
X82550000Y-36840000D03*
%TO.P,A1,20,A1*%
%TO.N,SMOKE*%
X80010000Y-36840000D03*
%TO.P,A1,21,A2*%
%TO.N,unconnected-(A1-Pad21)*%
X77470000Y-36840000D03*
%TO.P,A1,22,A3*%
%TO.N,unconnected-(A1-Pad22)*%
X74930000Y-36840000D03*
%TO.P,A1,23,A4*%
%TO.N,SDA*%
X72390000Y-36840000D03*
%TO.P,A1,24,A5*%
%TO.N,SCL*%
X69850000Y-36840000D03*
%TO.P,A1,25,A6*%
%TO.N,unconnected-(A1-Pad25)*%
X67310000Y-36840000D03*
%TO.P,A1,26,A7*%
%TO.N,unconnected-(A1-Pad26)*%
X64770000Y-36840000D03*
%TO.P,A1,27,+5V*%
%TO.N,5V*%
X62230000Y-36840000D03*
%TO.P,A1,28,~{RESET}*%
%TO.N,unconnected-(A1-Pad28)*%
X59690000Y-36840000D03*
%TO.P,A1,29,GND*%
%TO.N,GND*%
X57150000Y-36840000D03*
%TO.P,A1,30,VIN*%
%TO.N,unconnected-(A1-Pad30)*%
X54610000Y-36840000D03*
%TD*%
D15*
%TO.P,D3,1,K*%
%TO.N,GND*%
X27940000Y-5080000D03*
D16*
%TO.P,D3,2,A*%
%TO.N,Net-(D3-Pad2)*%
X30480000Y-5080000D03*
%TD*%
D13*
%TO.P,J3,1,Pin_1*%
%TO.N,GND*%
X8890000Y-15240000D03*
D14*
%TO.P,J3,2,Pin_2*%
%TO.N,SCL*%
X8890000Y-17780000D03*
%TO.P,J3,3,Pin_3*%
%TO.N,SDA*%
X8890000Y-20320000D03*
%TO.P,J3,4,Pin_4*%
%TO.N,3.3V*%
X8890000Y-22860000D03*
%TD*%
D13*
%TO.P,J1,1,Pin_1*%
%TO.N,3.3V*%
X82550000Y-55880000D03*
D14*
%TO.P,J1,2,Pin_2*%
%TO.N,DHT22*%
X80010000Y-55880000D03*
%TO.P,J1,3,Pin_3*%
%TO.N,unconnected-(J1-Pad3)*%
X77470000Y-55880000D03*
%TO.P,J1,4,Pin_4*%
%TO.N,GND*%
X74930000Y-55880000D03*
%TD*%
D17*
%TO.P,C1,1*%
%TO.N,3.3V*%
X81240000Y-50800000D03*
%TO.P,C1,2*%
%TO.N,GND*%
X76240000Y-50800000D03*
%TD*%
D13*
%TO.P,J2,1,Pin_1*%
%TO.N,GND*%
X8915000Y-43170000D03*
D14*
%TO.P,J2,2,Pin_2*%
%TO.N,SCL-5V*%
X8915000Y-40630000D03*
%TO.P,J2,3,Pin_3*%
%TO.N,SDA-5V*%
X8915000Y-38090000D03*
%TO.P,J2,4,Pin_4*%
%TO.N,5V*%
X8915000Y-35550000D03*
%TD*%
D13*
%TO.P,J4,1,Pin_1*%
%TO.N,3.3V*%
X67300000Y-55830000D03*
D14*
%TO.P,J4,2,Pin_2*%
%TO.N,GND*%
X64760000Y-55830000D03*
%TO.P,J4,3,Pin_3*%
%TO.N,unconnected-(J4-Pad3)*%
X62220000Y-55830000D03*
%TO.P,J4,4,Pin_4*%
%TO.N,SMOKE*%
X59680000Y-55830000D03*
%TD*%
D15*
%TO.P,D1,1,K*%
%TO.N,GND*%
X43180000Y-5080000D03*
D16*
%TO.P,D1,2,A*%
%TO.N,Net-(D1-Pad2)*%
X45720000Y-5080000D03*
%TD*%
D20*
%TO.N,GND*%
X62230000Y-23749000D03*
X66421000Y-3810000D03*
X71882000Y-55880000D03*
X73533000Y-50800000D03*
X8890000Y-11430000D03*
X64770000Y-52197000D03*
X43180000Y-7620000D03*
X12573000Y-43180000D03*
X57150000Y-34163000D03*
X27940000Y-7620000D03*
X35560000Y-7620000D03*
%TO.N,DHT22*%
X82677000Y-31877000D03*
X82677000Y-40767000D03*
%TO.N,3.3V*%
X24384000Y-43053000D03*
X24384000Y-39370000D03*
%TO.N,SDA*%
X25527000Y-24765000D03*
X15240000Y-22987000D03*
X71882000Y-7366000D03*
X19431000Y-27432000D03*
X38100000Y-20828000D03*
%TO.N,SCL*%
X71882000Y-9652000D03*
X45212000Y-27432000D03*
%TO.N,5V*%
X17526000Y-33274000D03*
X53848000Y-42672000D03*
X29210000Y-35814000D03*
%TD*%
D21*
%TO.N,GND*%
X43180000Y-5080000D02*
X43180000Y-7620000D01*
X57150000Y-36840000D02*
X57150000Y-34163000D01*
X69830000Y-3810000D02*
X66421000Y-3810000D01*
X27940000Y-5080000D02*
X27940000Y-7620000D01*
X62230000Y-21600000D02*
X62230000Y-23749000D01*
X64760000Y-55830000D02*
X64760000Y-52207000D01*
X8890000Y-15240000D02*
X8890000Y-11430000D01*
X74930000Y-55880000D02*
X71882000Y-55880000D01*
X35560000Y-5080000D02*
X35560000Y-7620000D01*
X76240000Y-50800000D02*
X73533000Y-50800000D01*
X12563000Y-43170000D02*
X12573000Y-43180000D01*
X64760000Y-52207000D02*
X64770000Y-52197000D01*
X8915000Y-43170000D02*
X12563000Y-43170000D01*
%TO.N,Net-(A1-Pad5)*%
X64770000Y-20320000D02*
X62865000Y-18415000D01*
X64770000Y-21600000D02*
X64770000Y-20320000D01*
X62865000Y-18415000D02*
X62865000Y-17510000D01*
%TO.N,Net-(A1-Pad6)*%
X67310000Y-20002500D02*
X66040000Y-18732500D01*
X66040000Y-18732500D02*
X66040000Y-17510000D01*
X67310000Y-21600000D02*
X67310000Y-20002500D01*
%TO.N,Net-(A1-Pad7)*%
X69850000Y-21600000D02*
X69850000Y-17510000D01*
%TO.N,DHT22*%
X80010000Y-55880000D02*
X80010000Y-54610000D01*
X80010000Y-21600000D02*
X80010000Y-29210000D01*
X82677000Y-40767000D02*
X81153000Y-40767000D01*
X81153000Y-40767000D02*
X78769000Y-43151000D01*
X78769000Y-43151000D02*
X78769000Y-45974000D01*
X78769000Y-53311000D02*
X78769000Y-45974000D01*
X78740000Y-53340000D02*
X78769000Y-53311000D01*
X80010000Y-54610000D02*
X78740000Y-53340000D01*
X80010000Y-29210000D02*
X82677000Y-31877000D01*
%TO.N,RST_CSS*%
X79990000Y-10775000D02*
X85090000Y-15875000D01*
X85090000Y-15875000D02*
X85090000Y-21600000D01*
X79990000Y-3785000D02*
X79990000Y-10775000D01*
%TO.N,WAKE_CCS*%
X82530000Y-10140000D02*
X82530000Y-3810000D01*
X87630000Y-15240000D02*
X82530000Y-10140000D01*
X87630000Y-21600000D02*
X87630000Y-15240000D01*
%TO.N,3.3V*%
X83849000Y-45974000D02*
X83849000Y-50009000D01*
X4318000Y-26670000D02*
X4318000Y-44831000D01*
X15748000Y-25400000D02*
X17256000Y-23892000D01*
X73152000Y-1524000D02*
X72370000Y-2306000D01*
X87630000Y-36840000D02*
X87630000Y-42193000D01*
X9525000Y-25400000D02*
X15748000Y-25400000D01*
X67300000Y-57140000D02*
X67300000Y-57160000D01*
X24064000Y-39050000D02*
X24384000Y-39370000D01*
X67300000Y-55830000D02*
X67300000Y-57140000D01*
X82550000Y-56896000D02*
X81534000Y-57912000D01*
X22474000Y-47117000D02*
X25461000Y-44130000D01*
X8382000Y-25273000D02*
X5715000Y-25273000D01*
X68072000Y-57912000D02*
X67300000Y-57140000D01*
X56896000Y-57912000D02*
X43114000Y-44130000D01*
X5715000Y-25273000D02*
X4318000Y-26670000D01*
X82550000Y-55880000D02*
X82550000Y-56896000D01*
X92964000Y-6350000D02*
X88138000Y-1524000D01*
X25461000Y-44130000D02*
X32687500Y-44130000D01*
X8890000Y-24765000D02*
X8382000Y-25273000D01*
X88138000Y-1524000D02*
X73152000Y-1524000D01*
X87630000Y-29464000D02*
X92964000Y-24130000D01*
X87630000Y-42193000D02*
X83849000Y-45974000D01*
X8890000Y-24765000D02*
X9525000Y-25400000D01*
X21257500Y-39050000D02*
X24064000Y-39050000D01*
X4318000Y-44831000D02*
X6604000Y-47117000D01*
X17256000Y-16510000D02*
X17256000Y-20320000D01*
X82550000Y-54102000D02*
X81240000Y-52792000D01*
X83849000Y-50009000D02*
X83058000Y-50800000D01*
X67300000Y-57160000D02*
X66548000Y-57912000D01*
X8890000Y-22860000D02*
X8890000Y-24765000D01*
X87630000Y-36840000D02*
X87630000Y-29464000D01*
X6604000Y-47117000D02*
X22474000Y-47117000D01*
X43114000Y-44130000D02*
X32687500Y-44130000D01*
X81534000Y-57912000D02*
X68072000Y-57912000D01*
X72370000Y-2306000D02*
X72370000Y-3785000D01*
X82550000Y-55880000D02*
X82550000Y-54102000D01*
X17256000Y-23892000D02*
X17256000Y-20320000D01*
X81240000Y-52792000D02*
X81240000Y-50800000D01*
X24384000Y-43053000D02*
X25461000Y-44130000D01*
X83058000Y-50800000D02*
X81240000Y-50800000D01*
X66548000Y-57912000D02*
X56896000Y-57912000D01*
X92964000Y-24130000D02*
X92964000Y-6350000D01*
%TO.N,SMOKE*%
X80010000Y-38227000D02*
X80010000Y-36840000D01*
X76581000Y-41656000D02*
X80010000Y-38227000D01*
X59680000Y-55830000D02*
X59680000Y-51318000D01*
X69342000Y-41656000D02*
X76581000Y-41656000D01*
X59680000Y-51318000D02*
X69342000Y-41656000D01*
%TO.N,SDA*%
X35623500Y-24765000D02*
X36861750Y-23526750D01*
X36861750Y-23526750D02*
X39116000Y-25781000D01*
X36861750Y-22066250D02*
X38100000Y-20828000D01*
X25527000Y-24765000D02*
X35623500Y-24765000D01*
X15240000Y-22987000D02*
X15240000Y-20336000D01*
X72390000Y-30226000D02*
X72390000Y-36840000D01*
X74910000Y-6116000D02*
X73660000Y-7366000D01*
X8890000Y-20320000D02*
X15256000Y-20320000D01*
X67945000Y-25781000D02*
X72390000Y-30226000D01*
X73660000Y-7366000D02*
X71882000Y-7366000D01*
X15240000Y-20336000D02*
X15256000Y-20320000D01*
X21257500Y-37150000D02*
X21257500Y-29258500D01*
X74910000Y-3785000D02*
X74910000Y-6116000D01*
X36861750Y-23526750D02*
X36861750Y-22066250D01*
X39116000Y-25781000D02*
X67945000Y-25781000D01*
X21257500Y-29258500D02*
X19431000Y-27432000D01*
%TO.N,SCL*%
X45212000Y-29972000D02*
X44069000Y-31115000D01*
X15256000Y-16510000D02*
X15256000Y-15224000D01*
X75057000Y-9652000D02*
X71882000Y-9652000D01*
X69850000Y-33147000D02*
X69850000Y-36840000D01*
X77450000Y-3785000D02*
X77450000Y-7259000D01*
X77450000Y-7259000D02*
X75057000Y-9652000D01*
X32687500Y-32814500D02*
X32687500Y-32844500D01*
X15256000Y-16510000D02*
X15256000Y-17653000D01*
X22733000Y-28067000D02*
X25781000Y-31115000D01*
X30988000Y-31115000D02*
X32687500Y-32814500D01*
X15875000Y-14605000D02*
X18161000Y-14605000D01*
X32687500Y-42230000D02*
X32687500Y-32844500D01*
X18161000Y-14605000D02*
X22733000Y-19177000D01*
X46355000Y-31115000D02*
X67818000Y-31115000D01*
X34417000Y-31115000D02*
X43942000Y-31115000D01*
X44069000Y-31115000D02*
X43942000Y-31115000D01*
X45212000Y-29972000D02*
X46355000Y-31115000D01*
X25781000Y-31115000D02*
X30988000Y-31115000D01*
X15256000Y-15224000D02*
X15875000Y-14605000D01*
X32687500Y-32844500D02*
X34417000Y-31115000D01*
X8890000Y-17780000D02*
X15129000Y-17780000D01*
X22733000Y-19177000D02*
X22733000Y-28067000D01*
X67818000Y-31115000D02*
X69850000Y-33147000D01*
X15129000Y-17780000D02*
X15256000Y-17653000D01*
X45212000Y-27432000D02*
X45212000Y-29972000D01*
%TO.N,5V*%
X12182000Y-35550000D02*
X12716000Y-36084000D01*
X16256000Y-33274000D02*
X17526000Y-33274000D01*
X12716000Y-36084000D02*
X15240000Y-36084000D01*
X27544344Y-38597254D02*
X27544344Y-37479656D01*
X62230000Y-39624000D02*
X59182000Y-42672000D01*
X27544344Y-37479656D02*
X29210000Y-35814000D01*
X15240000Y-34290000D02*
X16256000Y-33274000D01*
X59182000Y-42672000D02*
X53848000Y-42672000D01*
X8915000Y-35550000D02*
X12182000Y-35550000D01*
X62230000Y-36840000D02*
X62230000Y-39624000D01*
X15240000Y-36084000D02*
X15240000Y-34290000D01*
%TO.N,Net-(D1-Pad2)*%
X61468000Y-5080000D02*
X45720000Y-5080000D01*
X69850000Y-15510000D02*
X69850000Y-13462000D01*
X69850000Y-13462000D02*
X61468000Y-5080000D01*
%TO.N,Net-(D2-Pad2)*%
X41910000Y-10668000D02*
X38100000Y-6858000D01*
X38100000Y-6858000D02*
X38100000Y-5080000D01*
X63500000Y-10668000D02*
X41910000Y-10668000D01*
X66040000Y-15510000D02*
X66040000Y-13208000D01*
X66040000Y-13208000D02*
X63500000Y-10668000D01*
%TO.N,Net-(D3-Pad2)*%
X62865000Y-15510000D02*
X62849000Y-15494000D01*
X62849000Y-15494000D02*
X37084000Y-15494000D01*
X30480000Y-8890000D02*
X30480000Y-5080000D01*
X37084000Y-15494000D02*
X30480000Y-8890000D01*
%TO.N,SCL-5V*%
X28956000Y-43180000D02*
X30812500Y-43180000D01*
X8915000Y-40630000D02*
X27511598Y-40630000D01*
X27511598Y-40630000D02*
X27544344Y-40597254D01*
X27544344Y-40597254D02*
X27544344Y-41768344D01*
X27544344Y-41768344D02*
X28956000Y-43180000D01*
%TO.N,SDA-5V*%
X19372500Y-38090000D02*
X8915000Y-38090000D01*
X19382500Y-38100000D02*
X19372500Y-38090000D01*
%TD*%
M02*
